<svg xmlns="http://www.w3.org/2000/svg" xmlns:xlink="http://www.w3.org/1999/xlink" viewBox="0 0 351.13 94.02"><defs><style>.cls-1{fill:#bd2328;}.cls-2{fill:#231f20;}.cls-3{clip-path:url(#clip-path);}</style><clipPath id="clip-path"><polygon class="cls-1" points="127.15 93.9 96.22 67.2 96.21 67.21 81.96 54.29 96.22 20.39 127.15 93.9"/></clipPath></defs><g id="Layer_2" data-name="Layer 2"><g id="Layer_1-2" data-name="Layer 1"><path class="cls-2" d="M25.36,90.51C11.47,90.51,3,80.41,0,76.07L10.27,69C12.15,71.7,17.38,78,25.35,78c9.54,0,15.47-6.51,15.47-17V20.47H53.29V61.06C53.29,78.4,41.81,90.51,25.36,90.51Z"/><path class="cls-2" d="M203.05,50.79a35.27,35.27,0,0,1,.23,4,37.29,37.29,0,0,1-9,25,32.72,32.72,0,0,1-24.86,10.78,35.74,35.74,0,1,1,28.89-56.77l-10.25,7.12A23.26,23.26,0,1,0,169.43,78c11.26,0,17.81-7.09,20.26-15.45H171.77V50.79Z"/><path class="cls-2" d="M229.9,32.57V48.91h34.83V60.63H229.9V77H272V88.69H217.42V20.85H272V32.57Z"/><path class="cls-2" d="M300.83,33.32l0,55.37H288.38l0-67.84,35.65,0h0a23.6,23.6,0,0,1,23.69,23.46c0,10-6.62,18.4-16.34,21.28l19.78,23.1H335.61L308.74,57.3h9.59c10.21,0,16.88-5.37,16.88-13a11.11,11.11,0,0,0-11.21-11H300.83Z"/><polygon class="cls-1" points="96.33 67.32 65.42 94.02 82.08 54.4 96.33 67.32"/><polygon class="cls-1" points="127.15 93.9 96.22 67.2 96.21 67.21 81.96 54.29 96.22 20.39 127.15 93.9"/><g class="cls-3"><rect class="cls-1" x="81.96" y="20.39" width="45.18" height="73.51"/><path class="cls-1" d="M104.08,38.09c14.12,9.92,18,28.74,8.65,42A28.51,28.51,0,0,1,93.29,91.89a31.53,31.53,0,0,1-11.75-.55h.19V32.45h-.68A32.17,32.17,0,0,1,104.08,38.09Z"/><path class="cls-1" d="M103.79,38.51c13.87,9.75,17.68,28.24,8.5,41.3A27.94,27.94,0,0,1,93.18,91.37a30.64,30.64,0,0,1-11.54-.54h.09V33h-.58A31.61,31.61,0,0,1,103.79,38.51Z"/><path class="cls-1" d="M103.5,38.92c13.63,9.58,17.37,27.75,8.35,40.58A27.51,27.51,0,0,1,93.08,90.86a30.46,30.46,0,0,1-11.35-.53c-.47-.11-.94-.24-1.41-.37h1.41V33.47h-.47A31.08,31.08,0,0,1,103.5,38.92Z"/><path class="cls-1" d="M103.2,39.34c13.39,9.4,17.07,27.25,8.21,39.85A27,27,0,0,1,93,90.35a30,30,0,0,1-11.14-.52c-.46-.11-.93-.23-1.39-.37h1.29V34h-.36A30.52,30.52,0,0,1,103.2,39.34Z"/><path class="cls-1" d="M102.91,39.75C116.06,49,119.66,66.51,111,78.89a26.53,26.53,0,0,1-18.1,11,29.53,29.53,0,0,1-10.94-.51c-.46-.11-.91-.23-1.37-.36h1.17V34.5h-.26A29.94,29.94,0,0,1,102.91,39.75Z"/><path class="cls-1" d="M102.62,40.17c12.9,9.06,16.44,26.26,7.91,38.41A26.06,26.06,0,0,1,92.76,89.32,28.68,28.68,0,0,1,82,88.82c-.44-.1-.89-.22-1.33-.35h1V35h-.15A29.37,29.37,0,0,1,102.62,40.17Z"/><path class="cls-1" d="M102.33,40.58c12.66,8.9,16.13,25.77,7.76,37.69A25.53,25.53,0,0,1,92.65,88.81a28.19,28.19,0,0,1-10.53-.49c-.44-.11-.88-.22-1.31-.35h.92V35.52h0A28.86,28.86,0,0,1,102.33,40.58Z"/><path class="cls-1" d="M102,41c12.41,8.72,15.82,25.27,7.61,37A25.07,25.07,0,0,1,92.55,88.3a27.75,27.75,0,0,1-10.33-.48l-1.29-.34h.8V36.25h-1.2L81.79,36A28.28,28.28,0,0,1,102,41Z"/><path class="cls-1" d="M101.75,41.42c12.17,8.54,15.51,24.77,7.46,36.23A24.6,24.6,0,0,1,92.44,87.79a27.12,27.12,0,0,1-10.13-.48L81.05,87h.68V36.75H80.66l1.23-.2A27.67,27.67,0,0,1,101.75,41.42Z"/><path class="cls-1" d="M101.45,41.83c11.93,8.38,15.21,24.28,7.32,35.51a24.09,24.09,0,0,1-16.43,9.93,26.46,26.46,0,0,1-9.93-.46l-1.23-.32h.55V37.26h-.94l1.21-.2A27.11,27.11,0,0,1,101.45,41.83Z"/><path class="cls-1" d="M101.16,42.24C112.85,50.45,116.05,66,108.32,77a23.55,23.55,0,0,1-16.09,9.73,26,26,0,0,1-9.72-.45c-.41-.1-.81-.2-1.21-.32h.43V37.77h-.81l1.18-.2A26.63,26.63,0,0,1,101.16,42.24Z"/><path class="cls-1" d="M100.87,42.66c11.44,8,14.58,23.29,7,34.06a23.1,23.1,0,0,1-15.75,9.53,25.32,25.32,0,0,1-9.52-.45,22,22,0,0,1-2.37-.68h1.49V38.28h-.68l1.16-.2A26.07,26.07,0,0,1,100.87,42.66Z"/><path class="cls-1" d="M100.58,43.08c11.2,7.86,14.27,22.78,6.86,33.33A22.6,22.6,0,0,1,92,85.74a24.9,24.9,0,0,1-9.32-.44c-.77-.18-1.55-.4-2.31-.66h1.34V38.79h-.55c.38-.08.75-.14,1.14-.19A25.44,25.44,0,0,1,100.58,43.08Z"/><path class="cls-1" d="M100.29,43.49c10.95,7.69,14,22.29,6.71,32.61a22,22,0,0,1-15.08,9.12,24.45,24.45,0,0,1-9.12-.42c-.76-.18-1.51-.4-2.26-.65h1.19V39.54H80.21c.73-.18,1.47-.32,2.21-.43A24.93,24.93,0,0,1,100.29,43.49Z"/><path class="cls-1" d="M100,43.9c10.71,7.53,13.65,21.8,6.56,31.89a21.62,21.62,0,0,1-14.75,8.92,24,24,0,0,1-8.91-.41c-.74-.18-1.48-.39-2.22-.64h1V40H80.36c.72-.17,1.44-.31,2.17-.42A24.39,24.39,0,0,1,100,43.9Z"/><path class="cls-1" d="M99.71,44.32c10.46,7.35,13.33,21.3,6.41,31.16A21.12,21.12,0,0,1,91.71,84.2,23.38,23.38,0,0,1,83,83.79c-.72-.17-1.44-.38-2.16-.62h.9V40.54H80.52c.69-.17,1.4-.3,2.11-.41A23.84,23.84,0,0,1,99.71,44.32Z"/><path class="cls-1" d="M99.41,44.74c10.23,7.18,13,20.8,6.27,30.43A20.63,20.63,0,0,1,91.6,83.69a22.89,22.89,0,0,1-8.51-.4c-.71-.17-1.41-.37-2.11-.61h.75V41H80.67q1-.24,2.07-.39A23.18,23.18,0,0,1,99.41,44.74Z"/><path class="cls-1" d="M99.12,45.15c10,7,12.72,20.31,6.12,29.71a20.17,20.17,0,0,1-13.75,8.32,22.2,22.2,0,0,1-8.3-.39c-.69-.17-1.38-.37-2.06-.6h.6V41.55h-.9q1-.24,2-.39A22.7,22.7,0,0,1,99.12,45.15Z"/><path class="cls-1" d="M98.83,45.57c9.74,6.83,12.41,19.81,6,29a19.62,19.62,0,0,1-13.41,8.11,21.53,21.53,0,0,1-8.1-.38c-.68-.16-1.35-.35-2-.58h.46V42.05H81c.65-.16,1.31-.28,2-.38A22.18,22.18,0,0,1,98.83,45.57Z"/><path class="cls-1" d="M98.54,46c9.49,6.67,12.1,19.32,5.82,28.26a19.15,19.15,0,0,1-13.08,7.91,21.11,21.11,0,0,1-7.9-.37,19.78,19.78,0,0,1-2-.56h.31V42.55h-.59c.63-.15,1.27-.27,1.91-.37A21.67,21.67,0,0,1,98.54,46Z"/><path class="cls-1" d="M98.25,46.4c9.25,6.49,11.79,18.82,5.67,27.53a18.69,18.69,0,0,1-12.74,7.71,20.66,20.66,0,0,1-7.7-.36c-.64-.15-1.28-.34-1.91-.55h.16V43.06h-.44c.62-.15,1.24-.27,1.87-.36A21,21,0,0,1,98.25,46.4Z"/><path class="cls-1" d="M98,46.81c9,6.33,11.47,18.33,5.52,26.81a18.2,18.2,0,0,1-12.41,7.51,20.17,20.17,0,0,1-7.49-.35q-.94-.23-1.86-.54h0V43.56h-.28a18.08,18.08,0,0,1,1.81-.35A20.52,20.52,0,0,1,98,46.81Z"/><path class="cls-1" d="M97.66,47.23c8.77,6.15,11.17,17.83,5.38,26.08A17.65,17.65,0,0,1,91,80.61a19.37,19.37,0,0,1-7.3-.34,17.58,17.58,0,0,1-1.81-.52c-.3-.1-.59-.21-.89-.33h.76V44.06H81.6c.58-.14,1.17-.25,1.77-.34A19.92,19.92,0,0,1,97.66,47.23Z"/><path class="cls-1" d="M97.37,47.64c8.52,6,10.86,17.34,5.22,25.36a17.18,17.18,0,0,1-11.73,7.1,19.09,19.09,0,0,1-7.09-.33,19.7,19.7,0,0,1-3.49-1.19h1.45V44.79h-.82c.28-.08.56-.16.85-.22.56-.14,1.14-.25,1.72-.34A19.39,19.39,0,0,1,97.37,47.64Z"/><path class="cls-1" d="M97.08,48.06c8.28,5.81,10.55,16.84,5.07,24.63a16.68,16.68,0,0,1-11.39,6.9,18.65,18.65,0,0,1-6.89-.32,19.12,19.12,0,0,1-3.39-1.16h1.25V45.55H80.28a17.65,17.65,0,0,1,3.3-.8A18.82,18.82,0,0,1,97.08,48.06Z"/><path class="cls-1" d="M96.79,48.47c8,5.64,10.24,16.35,4.92,23.91a16.18,16.18,0,0,1-11.06,6.7A18,18,0,0,1,84,78.76a17.59,17.59,0,0,1-3.3-1.12h1.06V46H80.49a16.43,16.43,0,0,1,3.2-.78A18.29,18.29,0,0,1,96.79,48.47Z"/><path class="cls-1" d="M96.5,48.89c7.79,5.47,9.92,15.85,4.77,23.18a15.7,15.7,0,0,1-10.73,6.49,17.31,17.31,0,0,1-6.48-.3,18.73,18.73,0,0,1-3.19-1.08h.86V46.53h-1a16.32,16.32,0,0,1,3.1-.76A17.74,17.74,0,0,1,96.5,48.89Z"/><path class="cls-1" d="M96.21,49.3c7.54,5.3,9.61,15.36,4.62,22.46a15.18,15.18,0,0,1-10.39,6.29,16.66,16.66,0,0,1-6.28-.29,17.59,17.59,0,0,1-3.09-1.05h.66V47h-.84a16.12,16.12,0,0,1,3-.73A17.2,17.2,0,0,1,96.21,49.3Z"/><path class="cls-1" d="M95.91,49.72c7.31,5.13,9.31,14.86,4.48,21.74a14.74,14.74,0,0,1-10.06,6.08,16,16,0,0,1-6.07-.29,16.55,16.55,0,0,1-3-1h.47V47.5h-.64A15.24,15.24,0,0,1,84,46.8,16.55,16.55,0,0,1,95.91,49.72Z"/><path class="cls-1" d="M95.62,50.13c7.06,5,9,14.37,4.33,21A14.27,14.27,0,0,1,90.23,77a15.8,15.8,0,0,1-5.88-.28,16.69,16.69,0,0,1-2.89-1h.27V48H81.3a15,15,0,0,1,2.81-.68A16,16,0,0,1,95.62,50.13Z"/><path class="cls-1" d="M95.33,50.55c6.82,4.78,8.69,13.87,4.18,20.29a13.75,13.75,0,0,1-9.39,5.67,15.1,15.1,0,0,1-5.67-.26,16.11,16.11,0,0,1-2.79-1h.07V48.48H81.5a14.1,14.1,0,0,1,2.71-.66A15.52,15.52,0,0,1,95.33,50.55Z"/><path class="cls-1" d="M95,51c6.57,4.62,8.38,13.38,4,19.57A13.24,13.24,0,0,1,90,76a14.66,14.66,0,0,1-5.47-.25,15.1,15.1,0,0,1-2.7-.92c-.43-.2-.87-.42-1.3-.66h1.18V49h0a13.92,13.92,0,0,1,2.62-.64A15,15,0,0,1,95,51Z"/><path class="cls-1" d="M94.75,51.38c6.33,4.44,8.06,12.88,3.88,18.84a12.8,12.8,0,0,1-8.72,5.27,14,14,0,0,1-5.27-.25,14.93,14.93,0,0,1-2.59-.88,13.41,13.41,0,0,1-1.25-.64h.93V49.94h-1c.39-.18.79-.34,1.19-.48a13.55,13.55,0,0,1,2.53-.62A14.41,14.41,0,0,1,94.75,51.38Z"/><path class="cls-1" d="M94.46,51.79c6.08,4.28,7.75,12.39,3.73,18.12A12.33,12.33,0,0,1,89.81,75a13.74,13.74,0,0,1-7.56-1.09A12.46,12.46,0,0,1,81,73.28h.69V50.42H81A9.71,9.71,0,0,1,82.11,50a12.39,12.39,0,0,1,2.42-.59A13.84,13.84,0,0,1,94.46,51.79Z"/><path class="cls-1" d="M94.17,52.21c5.84,4.1,7.44,11.89,3.58,17.39S86,76.23,80.17,72.13h1.56V51.44H80.15a12.28,12.28,0,0,1,4.49-1.57A13.27,13.27,0,0,1,94.17,52.21Z"/><path class="cls-1" d="M93.87,52.62c5.6,3.93,7.14,11.4,3.44,16.67s-11.25,6.36-16.85,2.42h1.27V51.89H80.44a11.69,11.69,0,0,1,4.3-1.51A12.72,12.72,0,0,1,93.87,52.62Z"/><path class="cls-1" d="M93.58,53c5.36,3.76,6.83,10.89,3.28,15.94S86.11,75.06,80.75,71.3h1v-19h-1a11.15,11.15,0,0,1,4.12-1.45A12.15,12.15,0,0,1,93.58,53Z"/><path class="cls-1" d="M93.29,53.45c5.11,3.59,6.52,10.4,3.13,15.22s-10.26,5.8-15.37,2.21h.68V52.78H81A10.71,10.71,0,0,1,85,51.41,11.65,11.65,0,0,1,93.29,53.45Z"/><path class="cls-1" d="M93,53.87c4.87,3.42,6.2,9.9,3,14.49s-9.77,5.53-14.64,2.11h.39V53.23h-.41a10.06,10.06,0,0,1,3.74-1.31A11.1,11.1,0,0,1,93,53.87Z"/><path class="cls-1" d="M92.71,54.28c4.62,3.25,5.89,9.41,2.83,13.77s-9.29,5.25-13.91,2h.1V53.68h-.12a9.54,9.54,0,0,1,3.55-1.25A10.57,10.57,0,0,1,92.71,54.28Z"/><path class="cls-1" d="M92.42,54.7a9.15,9.15,0,1,1-10.5,14.94,10.24,10.24,0,0,1-1.49-1.28h1.3V55.2H80.45a9.41,9.41,0,0,1,1.45-1.08,9.17,9.17,0,0,1,3.37-1.18A10,10,0,0,1,92.42,54.7Z"/><path class="cls-1" d="M92.12,55.11a8.64,8.64,0,1,1-9.91,14.11A9.69,9.69,0,0,1,80.8,68h.93V55.59h-.9a8.33,8.33,0,0,1,1.36-1,8.61,8.61,0,0,1,3.19-1.11A9.37,9.37,0,0,1,92.12,55.11Z"/><path class="cls-1" d="M91.83,55.53A8.13,8.13,0,1,1,82.5,68.81a9,9,0,0,1-2.37-2.45h1.6V57.21H80.12A8.37,8.37,0,0,1,91.83,55.53Z"/><path class="cls-1" d="M91.54,55.94A7.62,7.62,0,1,1,82.8,68.39a8.36,8.36,0,0,1-2.23-2.29h1.16V57.52H80.56A7.85,7.85,0,0,1,91.54,55.94Z"/><path class="cls-1" d="M91.25,56.36A7.11,7.11,0,1,1,83.09,68,7.72,7.72,0,0,1,81,65.83h.72v-8H81A7.32,7.32,0,0,1,91.25,56.36Z"/><path class="cls-1" d="M91,56.77a6.61,6.61,0,1,1-7.58,10.79,7.2,7.2,0,0,1-2.94-4.42h1.29v-5h-.29A6.81,6.81,0,0,1,91,56.77Z"/><path class="cls-1" d="M90.67,57.19a6.1,6.1,0,1,1-7,10A6.71,6.71,0,0,1,81,63.06a5.91,5.91,0,0,1,.93-4.61A6.28,6.28,0,0,1,90.67,57.19Z"/><path class="cls-1" d="M90.38,57.6a5.59,5.59,0,1,1-8.06,1.16A5.77,5.77,0,0,1,90.38,57.6Z"/><path class="cls-1" d="M90.08,58a5.08,5.08,0,1,1-7.32,1A5.23,5.23,0,0,1,90.08,58Z"/><path class="cls-1" d="M89.79,58.43a4.57,4.57,0,1,1-6.59,1A4.72,4.72,0,0,1,89.79,58.43Z"/><path class="cls-1" d="M89.5,58.85a4.06,4.06,0,1,1-5.86.84A4.17,4.17,0,0,1,89.5,58.85Z"/><path class="cls-1" d="M89.21,59.26a3.56,3.56,0,1,1-5.13.74A3.66,3.66,0,0,1,89.21,59.26Z"/><path class="cls-1" d="M88.92,59.68a3,3,0,1,1-4.4.63A3.13,3.13,0,0,1,88.92,59.68Z"/><path class="cls-1" d="M88.63,60.09a2.54,2.54,0,1,1-3.66.53A2.63,2.63,0,0,1,88.63,60.09Z"/><path class="cls-1" d="M88.33,60.51a2,2,0,1,1-2.92.42A2.08,2.08,0,0,1,88.33,60.51Z"/><path class="cls-1" d="M88,60.92a1.52,1.52,0,1,1-1.75,2.49A1.52,1.52,0,1,1,88,60.92Z"/><path class="cls-1" d="M87.75,61.34a1,1,0,1,1-1.46.21A1,1,0,0,1,87.75,61.34Z"/><path class="cls-1" d="M87.46,61.75a.53.53,0,0,1,.15.73.52.52,0,0,1-.73.1.51.51,0,0,1-.15-.72A.52.52,0,0,1,87.46,61.75Z"/></g><circle class="cls-1" cx="87.33" cy="6.14" r="6.14"/><circle class="cls-1" cx="105.95" cy="6.14" r="6.14"/></g></g></svg>