<svg xmlns="http://www.w3.org/2000/svg" xmlns:xlink="http://www.w3.org/1999/xlink" viewBox="0 0 113.53 172.88"><defs><style>.cls-1{fill:#bd2328;}.cls-2{clip-path:url(#clip-path);}</style><clipPath id="clip-path"><polygon class="cls-1" points="113.53 172.88 56.66 123.77 56.63 123.79 30.43 100.03 56.66 37.69 113.53 172.88"/></clipPath></defs><g id="Layer_2" data-name="Layer 2"><g id="Layer_1-2" data-name="Layer 1"><polygon class="cls-1" points="56.85 123.35 0 172.44 30.65 99.59 56.85 123.35"/><polygon class="cls-1" points="113.53 172.88 56.66 123.77 56.63 123.79 30.43 100.03 56.66 37.69 113.53 172.88"/><g class="cls-2"><path class="cls-1" d="M70.57,71c25.52,17.93,32.52,51.94,15.64,76a51.48,51.48,0,0,1-35.14,21.26,56.91,56.91,0,0,1-21.24-1H30V60.8H28.94A58.11,58.11,0,0,1,70.57,71Z"/><path class="cls-1" d="M70,71.77c25.07,17.61,32,51,15.37,74.63a50.56,50.56,0,0,1-34.53,20.89,55.74,55.74,0,0,1-20.86-1c-.87-.2-1.74-.43-2.6-.68H30V61.74h-.86A57.06,57.06,0,0,1,70,71.77Z"/><path class="cls-1" d="M69.5,72.53c24.62,17.3,31.38,50.12,15.09,73.3a49.68,49.68,0,0,1-33.91,20.52,55.07,55.07,0,0,1-20.5-1c-.85-.2-1.7-.43-2.55-.67H30v-102h-.67A56.07,56.07,0,0,1,69.5,72.53Z"/><path class="cls-1" d="M69,73.3c24.18,17,30.81,49.2,14.82,72a48.77,48.77,0,0,1-33.3,20.14,53.69,53.69,0,0,1-20.12-.94c-.83-.19-1.67-.41-2.5-.65H30V63.63h-.47A55,55,0,0,1,69,73.3Z"/><path class="cls-1" d="M68.43,74.06C92.15,90.73,98.66,122.35,83,144.7a47.89,47.89,0,0,1-32.68,19.76,53,53,0,0,1-19.75-.92c-.82-.2-1.64-.41-2.46-.65H30V64.57h-.28A54,54,0,0,1,68.43,74.06Z"/><path class="cls-1" d="M67.89,74.82c23.28,16.35,29.67,47.38,14.27,69.31a47,47,0,0,1-32.07,19.39,51.8,51.8,0,0,1-19.37-.91c-.81-.19-1.61-.4-2.41-.63H30V65.51h-.09A53.06,53.06,0,0,1,67.89,74.82Z"/><path class="cls-1" d="M67.35,75.59c22.83,16,29.1,46.47,14,68a46.11,46.11,0,0,1-31.45,19,51.08,51.08,0,0,1-19-.89c-.79-.19-1.58-.4-2.37-.62H30V66.84H27.79c.77-.15,1.54-.28,2.32-.39A52,52,0,0,1,67.35,75.59Z"/><path class="cls-1" d="M66.28,77.11c21.94,15.41,28,44.65,13.45,65.31a44.27,44.27,0,0,1-30.22,18.27,48.75,48.75,0,0,1-18.25-.85q-1.14-.27-2.28-.6h1V68.71H28.27c.74-.14,1.48-.27,2.23-.37A50,50,0,0,1,66.28,77.11Z"/><path class="cls-1" d="M65.74,77.87c21.49,15.1,27.39,43.74,13.18,64a43.36,43.36,0,0,1-29.6,17.9,47.83,47.83,0,0,1-17.88-.84c-.75-.17-1.49-.37-2.23-.58H30V69.65H28.51c.72-.14,1.45-.26,2.18-.37A49,49,0,0,1,65.74,77.87Z"/><path class="cls-1" d="M65.21,78.64c21,14.78,26.81,42.82,12.89,62.64a42.49,42.49,0,0,1-29,17.53A47,47,0,0,1,31.61,158c-1.46-.35-2.91-.76-4.34-1.25H30V70.58H28.75c.71-.14,1.42-.26,2.14-.36A47.9,47.9,0,0,1,65.21,78.64Z"/><path class="cls-1" d="M64.67,79.4c20.6,14.47,26.25,41.92,12.62,61.31a41.57,41.57,0,0,1-28.36,17.16,46.2,46.2,0,0,1-17.14-.8c-1.42-.35-2.85-.75-4.25-1.23H30V71.52H29c.69-.14,1.39-.26,2.09-.36A46.92,46.92,0,0,1,64.67,79.4Z"/><path class="cls-1" d="M64.13,80.17c20.15,14.15,25.68,41,12.35,60a40.62,40.62,0,0,1-27.74,16.78A44.85,44.85,0,0,1,32,156.14c-1.4-.33-2.78-.73-4.16-1.2H30v-82H27.21c1.33-.32,2.69-.59,4.06-.78A45.83,45.83,0,0,1,64.13,80.17Z"/><path class="cls-1" d="M63.6,80.93C83.3,94.77,88.7,121,75.67,139.57A39.73,39.73,0,0,1,48.54,156a44.09,44.09,0,0,1-16.39-.76c-1.37-.33-2.72-.72-4.07-1.18H30V73.82H27.49c1.31-.32,2.64-.58,4-.77A44.81,44.81,0,0,1,63.6,80.93Z"/><path class="cls-1" d="M63.06,81.69C82.31,95.21,87.6,120.87,74.86,139a38.85,38.85,0,0,1-26.51,16,43,43,0,0,1-16-.75c-1.34-.32-2.66-.7-4-1.15H30V74.74H27.77c1.28-.31,2.58-.56,3.89-.75A43.82,43.82,0,0,1,63.06,81.69Z"/><path class="cls-1" d="M62.53,82.46c18.8,13.2,24,38.26,11.52,56a38,38,0,0,1-25.9,15.67,42,42,0,0,1-15.64-.74c-1.31-.31-2.6-.68-3.89-1.12H30V75.67H28.06c1.25-.31,2.52-.55,3.79-.74A42.83,42.83,0,0,1,62.53,82.46Z"/><path class="cls-1" d="M62,83.22c18.36,12.89,23.39,37.36,11.25,54.64A37.06,37.06,0,0,1,48,153.15a40.91,40.91,0,0,1-15.28-.71c-1.27-.3-2.53-.67-3.79-1.09H30V76.59H28.34c1.22-.29,2.46-.53,3.71-.71A41.77,41.77,0,0,1,62,83.22Z"/><path class="cls-1" d="M61.45,84c17.91,12.58,22.83,36.45,11,53.31a36.12,36.12,0,0,1-24.66,14.92,40.19,40.19,0,0,1-14.91-.69c-1.24-.3-2.47-.66-3.7-1.07H30V77.52H28.63a36.52,36.52,0,0,1,3.61-.7A40.73,40.73,0,0,1,61.45,84Z"/><path class="cls-1" d="M60.92,84.74c17.46,12.27,22.25,35.54,10.7,52a35.26,35.26,0,0,1-24.05,14.55A39,39,0,0,1,33,150.59c-1.21-.29-2.41-.63-3.61-1H30V78.44H28.91c1.16-.28,2.34-.51,3.53-.68A39.76,39.76,0,0,1,60.92,84.74Z"/><path class="cls-1" d="M60.38,85.51c17,11.95,21.68,34.62,10.43,50.64a34.38,34.38,0,0,1-23.43,14.18,38.09,38.09,0,0,1-14.16-.66c-1.18-.29-2.35-.62-3.51-1H30V79.37h-.8c1.13-.28,2.27-.5,3.43-.67A38.72,38.72,0,0,1,60.38,85.51Z"/><path class="cls-1" d="M59.85,86.27C76.41,97.91,81,120,70,135.58a33.41,33.41,0,0,1-22.82,13.8,36.9,36.9,0,0,1-13.78-.64,35,35,0,0,1-3.42-1h0V80.29h-.52c1.1-.27,2.22-.48,3.35-.64A37.71,37.71,0,0,1,59.85,86.27Z"/><path class="cls-1" d="M59.31,87c16.12,11.33,20.54,32.81,9.88,48A32.51,32.51,0,0,1,47,148.44a35.77,35.77,0,0,1-13.41-.63c-1.12-.26-2.23-.58-3.33-.95-.55-.19-1.1-.39-1.65-.61H30v-65h-.23A32.15,32.15,0,0,1,33,80.59,36.66,36.66,0,0,1,59.31,87Z"/><path class="cls-1" d="M58.77,87.8c15.67,11,20,31.89,9.61,46.65A31.67,31.67,0,0,1,46.8,147.5a35,35,0,0,1-13-.61,36,36,0,0,1-6.42-2.18H30V82.56H28.5c.51-.15,1-.29,1.55-.42,1-.25,2.1-.46,3.16-.61A35.63,35.63,0,0,1,58.77,87.8Z"/><path class="cls-1" d="M58.24,88.56c15.22,10.69,19.4,31,9.33,45.32a30.79,30.79,0,0,1-21,12.68A34.14,34.14,0,0,1,33.93,146a35.27,35.27,0,0,1-6.23-2.13H30V84H27.34a32.8,32.8,0,0,1,6.07-1.48A34.72,34.72,0,0,1,58.24,88.56Z"/><path class="cls-1" d="M57.7,89.33c14.77,10.37,18.83,30.06,9.06,44a29.82,29.82,0,0,1-20.35,12.3,33,33,0,0,1-12.3-.57A34.28,34.28,0,0,1,28.06,143H30V84.85H27.72a30.22,30.22,0,0,1,5.88-1.43A33.62,33.62,0,0,1,57.7,89.33Z"/><path class="cls-1" d="M57.16,90.09c14.33,10.06,18.26,29.16,8.79,42.65a28.94,28.94,0,0,1-19.74,11.93,32,32,0,0,1-11.92-.55,33.89,33.89,0,0,1-5.87-2H30V85.75H28.09a29.93,29.93,0,0,1,5.71-1.39A32.61,32.61,0,0,1,57.16,90.09Z"/><path class="cls-1" d="M56.09,91.62c13.43,9.43,17.12,27.33,8.23,40a27.13,27.13,0,0,1-18.49,11.19,30.45,30.45,0,0,1-16.68-2.4H30V87.55H28.83a28.82,28.82,0,0,1,5.35-1.31A30.57,30.57,0,0,1,56.09,91.62Z"/><path class="cls-1" d="M55.55,92.38c13,9.12,16.55,26.42,8,38.65a26.21,26.21,0,0,1-17.88,10.82,29,29,0,0,1-10.8-.51,30.08,30.08,0,0,1-5.32-1.81H30V88.44h-.79a27.46,27.46,0,0,1,5.17-1.25A29.52,29.52,0,0,1,55.55,92.38Z"/><path class="cls-1" d="M55,93.14c12.53,8.81,16,25.52,7.68,37.32A25.28,25.28,0,0,1,45.44,140.9,27.87,27.87,0,0,1,35,140.41a28.82,28.82,0,0,1-5.14-1.74H30V89.34h-.42a26.52,26.52,0,0,1,5-1.21A28.56,28.56,0,0,1,55,93.14Z"/><path class="cls-1" d="M54.48,93.9c12.09,8.5,15.41,24.61,7.41,36A24.38,24.38,0,0,1,45.24,140a27,27,0,0,1-10.06-.47,27.82,27.82,0,0,1-4.95-1.69c-.81-.36-1.6-.76-2.39-1.21H30V90.24H30a26.28,26.28,0,0,1,4.82-1.17A27.51,27.51,0,0,1,54.48,93.9Z"/><path class="cls-1" d="M54,94.67c11.64,8.18,14.83,23.69,7.13,34.65a23.48,23.48,0,0,1-16,9.7,26.23,26.23,0,0,1-9.69-.45,27.42,27.42,0,0,1-4.77-1.63c-.77-.35-1.54-.74-2.3-1.17H30V92H28.12a22.07,22.07,0,0,1,2.2-.9A25.34,25.34,0,0,1,35,90,26.51,26.51,0,0,1,54,94.67Z"/><path class="cls-1" d="M53.41,95.43c11.19,7.86,14.26,22.78,6.86,33.32a22.6,22.6,0,0,1-15.41,9.33,25.1,25.1,0,0,1-9.32-.44A26.06,26.06,0,0,1,31,136.08c-.75-.34-1.49-.71-2.22-1.12H30V92.9H28.57c.7-.32,1.41-.61,2.13-.86A23.3,23.3,0,0,1,35.15,91,25.47,25.47,0,0,1,53.41,95.43Z"/><path class="cls-1" d="M52.87,96.19c10.75,7.55,13.7,21.87,6.59,32s-21.58,12.2-32.32,4.65H30v-38H27.09a22.32,22.32,0,0,1,8.26-2.89A24.46,24.46,0,0,1,52.87,96.19Z"/><path class="cls-1" d="M52.34,97c10.3,7.23,13.12,21,6.31,30.65s-20.68,11.69-31,4.46H30V95.61H27.63a21.54,21.54,0,0,1,7.91-2.77A23.42,23.42,0,0,1,52.34,97Z"/><path class="cls-1" d="M51.8,97.72c9.85,6.92,12.55,20,6,29.32s-19.78,11.19-29.63,4.27H30V96.43H28.16a20.78,20.78,0,0,1,7.58-2.65A22.41,22.41,0,0,1,51.8,97.72Z"/><path class="cls-1" d="M51.27,98.49c9.4,6.6,12,19.13,5.76,28s-18.88,10.68-28.29,4.08H30V97.26H28.7a19.71,19.71,0,0,1,7.23-2.54A21.41,21.41,0,0,1,51.27,98.49Z"/><path class="cls-1" d="M50.73,99.25c9,6.29,11.41,18.22,5.49,26.65s-18,10.17-26.94,3.88H30V98.08h-.76a18.72,18.72,0,0,1,6.88-2.41A20.38,20.38,0,0,1,50.73,99.25Z"/><path class="cls-1" d="M50.19,100c8.51,6,10.84,17.31,5.22,25.32S38.32,135,29.82,129H30V98.9h-.22a17.62,17.62,0,0,1,6.54-2.29A19.32,19.32,0,0,1,50.19,100Z"/><path class="cls-1" d="M49.66,100.77c8.06,5.67,10.27,16.41,4.94,24s-16.19,9.15-24.25,3.48a18.78,18.78,0,0,1-2.74-2.34H30V101.7H27.66a16,16,0,0,1,2.66-2,17,17,0,0,1,6.19-2.17A18.36,18.36,0,0,1,49.66,100.77Z"/><path class="cls-1" d="M49.12,101.54c7.61,5.34,9.7,15.49,4.67,22.66s-15.29,8.64-22.9,3.29a18,18,0,0,1-2.59-2.21H30V102.42H28.34a15.29,15.29,0,0,1,2.52-1.88,15.84,15.84,0,0,1,5.85-2.05A17.36,17.36,0,0,1,49.12,101.54Z"/><path class="cls-1" d="M48.58,102.3c7.17,5,9.13,14.58,4.4,21.33s-14.39,8.13-21.55,3.1a16.59,16.59,0,0,1-4.38-4.51H30V105.4H27C31.77,98.66,41.42,97.27,48.58,102.3Z"/><path class="cls-1" d="M47.51,103.83c6.27,4.4,8,12.75,3.84,18.66S38.77,129.6,32.5,125.2a14.61,14.61,0,0,1-3.83-3.94H30V106.54H28.66C32.8,100.64,41.24,99.43,47.51,103.83Z"/><path class="cls-1" d="M47,104.59c5.82,4.09,7.41,11.85,3.56,17.33s-11.69,6.61-17.5,2.52a13.27,13.27,0,0,1-5.42-8.14H30v-9.19h-.53C33.32,101.63,41.16,100.5,47,104.59Z"/><path class="cls-1" d="M46.44,105.36c5.37,3.77,6.85,10.93,3.29,16s-10.79,6.1-16.16,2.33a12.21,12.21,0,0,1-5-7.52,10.82,10.82,0,0,1,1.7-8.48C33.83,102.62,41.07,101.58,46.44,105.36Z"/><path class="cls-1" d="M45.9,106.12c4.93,3.46,6.28,10,3,14.66s-9.89,5.59-14.81,2.13-6.28-10-3-14.66S41,102.66,45.9,106.12Z"/><path class="cls-1" d="M45.37,106.88c4.47,3.15,5.7,9.11,2.74,13.33s-9,5.08-13.47,1.94-5.7-9.11-2.74-13.33S40.89,103.74,45.37,106.88Z"/><path class="cls-1" d="M44.83,107.65a8.41,8.41,0,1,1-12.12,1.74A8.67,8.67,0,0,1,44.83,107.65Z"/><path class="cls-1" d="M44.29,108.41A7.47,7.47,0,1,1,33.52,110,7.69,7.69,0,0,1,44.29,108.41Z"/><path class="cls-1" d="M43.76,109.17a6.54,6.54,0,1,1-9.43,1.36A6.75,6.75,0,0,1,43.76,109.17Z"/><path class="cls-1" d="M43.22,109.93a5.61,5.61,0,1,1-8.08,1.17A5.78,5.78,0,0,1,43.22,109.93Z"/><path class="cls-1" d="M42.69,110.7a4.67,4.67,0,1,1-6.74,1A4.81,4.81,0,0,1,42.69,110.7Z"/><path class="cls-1" d="M42.15,111.46a3.74,3.74,0,1,1-5.39.78A3.86,3.86,0,0,1,42.15,111.46Z"/><path class="cls-1" d="M41.61,112.22a2.8,2.8,0,1,1-4,.59A2.89,2.89,0,0,1,41.61,112.22Z"/><path class="cls-1" d="M41.08,113a1.87,1.87,0,1,1-2.7.39A1.93,1.93,0,0,1,41.08,113Z"/><path class="cls-1" d="M40.54,113.75a.94.94,0,1,1-1.35.2A1,1,0,0,1,40.54,113.75Z"/></g><circle class="cls-1" cx="39.64" cy="11.3" r="11.3"/><circle class="cls-1" cx="73.89" cy="11.3" r="11.3"/></g></g></svg>