<svg xmlns="http://www.w3.org/2000/svg" xmlns:xlink="http://www.w3.org/1999/xlink" viewBox="0 0 351.13 133.4"><defs><style>.cls-1{fill:#bd2328;}.cls-2{clip-path:url(#clip-path);}.cls-3,.cls-4{fill:#fff;}.cls-4{font-size:18px;font-family:RMConnectRegular, RM Connect;letter-spacing:-0.03em;}.cls-5{letter-spacing:0.03em;}</style><clipPath id="clip-path"><polygon class="cls-1" points="124.45 94 93.53 67.29 93.51 67.31 79.27 54.38 93.53 20.49 124.45 94"/></clipPath></defs><g id="Layer_2" data-name="Layer 2"><g id="Layer_1-2" data-name="Layer 1"><polygon class="cls-1" points="93.63 67.07 62.72 93.76 79.39 54.15 93.63 67.07"/><polygon class="cls-1" points="124.45 94 93.53 67.29 93.51 67.31 79.27 54.38 93.53 20.49 124.45 94"/><g class="cls-2"><path class="cls-1" d="M101.09,38.61c13.88,9.74,17.68,28.24,8.51,41.3A28,28,0,0,1,90.49,91.47a30.9,30.9,0,0,1-11.55-.54H79V33.06h-.57A31.54,31.54,0,0,1,101.09,38.61Z"/><path class="cls-1" d="M100.8,39c13.63,9.58,17.37,27.75,8.36,40.58A27.53,27.53,0,0,1,90.38,91,30.41,30.41,0,0,1,79,90.43c-.48-.11-1-.24-1.42-.37H79V33.57h-.47A31,31,0,0,1,100.8,39Z"/><path class="cls-1" d="M100.51,39.44c13.39,9.4,17.06,27.24,8.2,39.85A27,27,0,0,1,90.28,90.45a30,30,0,0,1-11.15-.52l-1.38-.37H79V34.08h-.36A30.45,30.45,0,0,1,100.51,39.44Z"/><path class="cls-1" d="M100.22,39.85c13.14,9.24,16.75,26.75,8,39.13a26.49,26.49,0,0,1-18.1,11,29.12,29.12,0,0,1-10.94-.51l-1.36-.35H79V34.59h-.25A30,30,0,0,1,100.22,39.85Z"/><path class="cls-1" d="M99.93,40.27c12.9,9.06,16.44,26.25,7.9,38.4A26,26,0,0,1,90.06,89.42a28.62,28.62,0,0,1-10.73-.5c-.45-.11-.89-.22-1.34-.35h1V35.11h-.15A29.41,29.41,0,0,1,99.93,40.27Z"/><path class="cls-1" d="M99.63,40.68c12.66,8.89,16.14,25.76,7.76,37.68A25.53,25.53,0,0,1,90,88.91a28.39,28.39,0,0,1-10.53-.49c-.44-.11-.88-.22-1.32-.35H79V35.62h0A28.82,28.82,0,0,1,99.63,40.68Z"/><path class="cls-1" d="M99.34,41.1c12.42,8.72,15.82,25.26,7.61,36.95A25.08,25.08,0,0,1,89.85,88.4a27.75,27.75,0,0,1-10.33-.49c-.43-.1-.86-.21-1.28-.33H79V36.34h-1.2q.63-.12,1.26-.21A28.28,28.28,0,0,1,99.34,41.1Z"/><path class="cls-1" d="M98.76,41.93c11.93,8.38,15.2,24.27,7.31,35.5a24,24,0,0,1-16.43,9.94,26.62,26.62,0,0,1-9.92-.46c-.42-.1-.83-.21-1.24-.33H79V37.36h-.94c.4-.08.81-.15,1.21-.2A27.12,27.12,0,0,1,98.76,41.93Z"/><path class="cls-1" d="M98.47,42.34c11.68,8.21,14.89,23.78,7.16,34.79a23.58,23.58,0,0,1-16.09,9.73,26,26,0,0,1-9.73-.46c-.4-.09-.8-.2-1.21-.31H79V37.87h-.81c.4-.08.79-.14,1.19-.2A26.61,26.61,0,0,1,98.47,42.34Z"/><path class="cls-1" d="M98.18,42.76c11.44,8,14.58,23.28,7,34.06a23.14,23.14,0,0,1-15.76,9.53,25.54,25.54,0,0,1-9.52-.45c-.79-.19-1.58-.41-2.36-.68H79V38.38h-.68c.39-.08.78-.14,1.16-.2A26,26,0,0,1,98.18,42.76Z"/><path class="cls-1" d="M97.88,43.17C109.08,51,112.15,66,104.75,76.51a22.59,22.59,0,0,1-15.42,9.32A24.88,24.88,0,0,1,80,85.4c-.78-.19-1.55-.41-2.32-.67H79V38.88h-.55l1.14-.19A25.52,25.52,0,0,1,97.88,43.17Z"/><path class="cls-1" d="M97.59,43.59c11,7.69,14,22.29,6.72,32.61a22.16,22.16,0,0,1-15.09,9.12,24.46,24.46,0,0,1-9.12-.42c-.75-.18-1.51-.4-2.26-.66H79V39.63H77.51c.73-.17,1.47-.32,2.22-.42A24.89,24.89,0,0,1,97.59,43.59Z"/><path class="cls-1" d="M97.3,44C108,51.53,111,65.8,103.87,75.89a21.64,21.64,0,0,1-14.75,8.92,23.81,23.81,0,0,1-8.92-.42c-.74-.17-1.48-.39-2.21-.63h1V40.14H77.67a19.62,19.62,0,0,1,2.16-.42A24.38,24.38,0,0,1,97.3,44Z"/><path class="cls-1" d="M97,44.42c10.47,7.35,13.34,21.3,6.42,31.16A21.14,21.14,0,0,1,89,84.3a23.32,23.32,0,0,1-8.71-.41c-.73-.17-1.45-.38-2.16-.62H79V40.64H77.82a21.44,21.44,0,0,1,2.12-.41A23.81,23.81,0,0,1,97,44.42Z"/><path class="cls-1" d="M96.72,44.83c10.22,7.18,13,20.81,6.27,30.44A20.66,20.66,0,0,1,88.9,83.78a22.62,22.62,0,0,1-8.5-.39c-.71-.17-1.42-.37-2.12-.61H79V41.14H78c.68-.16,1.37-.3,2.06-.4A23.29,23.29,0,0,1,96.72,44.83Z"/><path class="cls-1" d="M96.43,45.25c10,7,12.72,20.31,6.11,29.71A20.12,20.12,0,0,1,88.8,83.27a22.24,22.24,0,0,1-8.31-.39c-.69-.16-1.38-.36-2.06-.59H79V41.64h-.9a20,20,0,0,1,2-.38A22.66,22.66,0,0,1,96.43,45.25Z"/><path class="cls-1" d="M96.13,45.66c9.74,6.84,12.41,19.82,6,29a19.65,19.65,0,0,1-13.41,8.11,21.75,21.75,0,0,1-8.1-.38,20.84,20.84,0,0,1-2-.58H79V42.15h-.74a18.33,18.33,0,0,1,2-.38A22.11,22.11,0,0,1,96.13,45.66Z"/><path class="cls-1" d="M95.84,46.08c9.5,6.67,12.1,19.32,5.82,28.26a19.17,19.17,0,0,1-13.07,7.91,21.31,21.31,0,0,1-7.9-.37c-.66-.16-1.32-.35-2-.57H79V42.65h-.59c.63-.15,1.27-.28,1.92-.37A21.58,21.58,0,0,1,95.84,46.08Z"/><path class="cls-1" d="M95.55,46.49C104.8,53,107.34,65.32,101.22,74a18.7,18.7,0,0,1-12.74,7.71,20.88,20.88,0,0,1-7.7-.36c-.64-.16-1.27-.34-1.91-.55H79V43.15H78.6q.91-.23,1.86-.36A21.07,21.07,0,0,1,95.55,46.49Z"/><path class="cls-1" d="M95.26,46.91c9,6.32,11.48,18.33,5.52,26.81a18.15,18.15,0,0,1-12.4,7.5,19.81,19.81,0,0,1-7.5-.35c-.62-.15-1.24-.32-1.86-.53h0V43.66h-.28a16.22,16.22,0,0,1,1.82-.35A20.45,20.45,0,0,1,95.26,46.91Z"/><path class="cls-1" d="M95,47.32c8.76,6.16,11.17,17.84,5.37,26.09a17.69,17.69,0,0,1-12.07,7.3A19.54,19.54,0,0,1,81,80.37c-.61-.14-1.21-.32-1.81-.52q-.45-.15-.9-.33H79V44.16h-.12a17.28,17.28,0,0,1,1.77-.34A19.91,19.91,0,0,1,95,47.32Z"/><path class="cls-1" d="M94.68,47.74c8.52,6,10.86,17.34,5.22,25.36a17.22,17.22,0,0,1-11.73,7.1,19.09,19.09,0,0,1-7.09-.33,19.43,19.43,0,0,1-3.49-1.19H79V44.89h-.81l.84-.23a16.83,16.83,0,0,1,1.72-.33A19.35,19.35,0,0,1,94.68,47.74Z"/><path class="cls-1" d="M94.39,48.15C102.66,54,104.93,65,99.46,72.79a16.7,16.7,0,0,1-11.4,6.9,18.46,18.46,0,0,1-6.89-.33,18.82,18.82,0,0,1-3.39-1.15H79V45.64H77.59a17.65,17.65,0,0,1,3.3-.8A18.88,18.88,0,0,1,94.39,48.15Z"/><path class="cls-1" d="M94.09,48.57c8,5.64,10.24,16.35,4.93,23.91A16.23,16.23,0,0,1,88,79.17a17.8,17.8,0,0,1-6.69-.31A18.25,18.25,0,0,1,78,77.74h1V46.13H77.79a17.58,17.58,0,0,1,3.2-.78A18.27,18.27,0,0,1,94.09,48.57Z"/><path class="cls-1" d="M93.8,49c7.79,5.47,9.93,15.86,4.78,23.19a15.72,15.72,0,0,1-10.73,6.49,17.31,17.31,0,0,1-6.48-.3,17.94,17.94,0,0,1-3.19-1.09H79V46.62H78a16.59,16.59,0,0,1,3.11-.75A17.74,17.74,0,0,1,93.8,49Z"/><path class="cls-1" d="M93.22,49.81c7.3,5.13,9.31,14.87,4.48,21.74a14.79,14.79,0,0,1-10.06,6.09,16.45,16.45,0,0,1-6.08-.29,16.76,16.76,0,0,1-3-1H79V47.6H78.4a15.85,15.85,0,0,1,2.91-.71A16.66,16.66,0,0,1,93.22,49.81Z"/><path class="cls-1" d="M92.93,50.23c7.06,5,9,14.37,4.32,21a14.18,14.18,0,0,1-9.72,5.88,15.75,15.75,0,0,1-5.87-.27,15.42,15.42,0,0,1-2.89-1H79V48.09H78.6a15,15,0,0,1,2.81-.69A16.09,16.09,0,0,1,92.93,50.23Z"/><path class="cls-1" d="M92.64,50.64c6.81,4.79,8.68,13.87,4.17,20.29a13.72,13.72,0,0,1-9.38,5.68,15.15,15.15,0,0,1-5.68-.26A16.11,16.11,0,0,1,79,75.4H79V48.58H78.8a14,14,0,0,1,2.72-.66A15.51,15.51,0,0,1,92.64,50.64Z"/><path class="cls-1" d="M92.35,51.06c6.57,4.61,8.37,13.37,4,19.56a13.25,13.25,0,0,1-9.05,5.48,14.46,14.46,0,0,1-5.47-.26,15,15,0,0,1-2.69-.91c-.44-.2-.87-.42-1.3-.66H79V49.07h0a13.63,13.63,0,0,1,2.61-.64A15,15,0,0,1,92.35,51.06Z"/><path class="cls-1" d="M92.05,51.47c6.33,4.45,8.07,12.88,3.88,18.84a12.79,12.79,0,0,1-8.71,5.28A14.22,14.22,0,0,1,82,75.34a14.38,14.38,0,0,1-2.59-.88,12.42,12.42,0,0,1-1.26-.64H79V50H78a12.5,12.5,0,0,1,1.2-.48,13.45,13.45,0,0,1,2.52-.62A14.43,14.43,0,0,1,92.05,51.47Z"/><path class="cls-1" d="M91.76,51.89c6.09,4.27,7.76,12.38,3.73,18.11a12.24,12.24,0,0,1-8.38,5.07,13.51,13.51,0,0,1-5.06-.23,14.45,14.45,0,0,1-2.5-.85c-.4-.18-.81-.39-1.2-.61H79V50.51h-.77c.37-.17.76-.33,1.15-.47a13.26,13.26,0,0,1,2.43-.59A13.86,13.86,0,0,1,91.76,51.89Z"/><path class="cls-1" d="M91.47,52.3c5.84,4.11,7.45,11.89,3.58,17.39s-11.73,6.64-17.57,2.53H79V51.54H77.45A12.1,12.1,0,0,1,81.94,50,13.29,13.29,0,0,1,91.47,52.3Z"/><path class="cls-1" d="M91.18,52.72c5.6,3.93,7.13,11.39,3.43,16.67s-11.24,6.35-16.84,2.42H79V52H77.74a11.74,11.74,0,0,1,4.31-1.51A12.73,12.73,0,0,1,91.18,52.72Z"/><path class="cls-1" d="M90.89,53.13c5.35,3.77,6.82,10.9,3.28,15.95s-10.76,6.08-16.11,2.31h1v-19H78A11.2,11.2,0,0,1,82.15,51,12.2,12.2,0,0,1,90.89,53.13Z"/><path class="cls-1" d="M90.6,53.55c5.11,3.59,6.51,10.4,3.13,15.22S83.46,74.57,78.35,71H79V52.88h-.7a10.73,10.73,0,0,1,3.93-1.38A11.63,11.63,0,0,1,90.6,53.55Z"/><path class="cls-1" d="M90.3,54c4.87,3.42,6.21,9.91,3,14.5S83.51,74,78.64,70.56H79V53.33h-.41A10.13,10.13,0,0,1,82.36,52,11,11,0,0,1,90.3,54Z"/><path class="cls-1" d="M90,54.38c4.63,3.25,5.9,9.41,2.84,13.77s-9.29,5.25-13.92,2H79V53.77h-.12a9.75,9.75,0,0,1,3.56-1.24A10.5,10.5,0,0,1,90,54.38Z"/><path class="cls-1" d="M89.72,54.79c4.38,3.08,5.59,8.92,2.69,13.05a9.43,9.43,0,0,1-13.18,1.89,10.27,10.27,0,0,1-1.5-1.27H79V55.3H77.76a9,9,0,0,1,1.45-1.08A9.12,9.12,0,0,1,82.57,53,10,10,0,0,1,89.72,54.79Z"/><path class="cls-1" d="M89.43,55.21a8.64,8.64,0,1,1-9.91,14.11,9.69,9.69,0,0,1-1.41-1.2H79V55.69h-.9a8,8,0,0,1,1.37-1,8.7,8.7,0,0,1,3.18-1.12A9.47,9.47,0,0,1,89.43,55.21Z"/><path class="cls-1" d="M89.14,55.62A8.13,8.13,0,1,1,79.81,68.9a8.93,8.93,0,0,1-2.38-2.45H79V57.31H77.42A8.39,8.39,0,0,1,89.14,55.62Z"/><path class="cls-1" d="M88.56,56.45a7.12,7.12,0,1,1-8.17,11.62,7.82,7.82,0,0,1-2.08-2.14H79v-8H78.3A7.34,7.34,0,0,1,88.56,56.45Z"/><path class="cls-1" d="M88.26,56.87a6.61,6.61,0,1,1-7.58,10.79,7.2,7.2,0,0,1-2.94-4.43H79v-5h-.29A6.81,6.81,0,0,1,88.26,56.87Z"/><path class="cls-1" d="M88,57.28a6.1,6.1,0,1,1-7,10,6.61,6.61,0,0,1-2.71-4.08,5.93,5.93,0,0,1,.92-4.61A6.29,6.29,0,0,1,88,57.28Z"/><path class="cls-1" d="M87.68,57.7a5.59,5.59,0,1,1-8.05,1.16A5.76,5.76,0,0,1,87.68,57.7Z"/><path class="cls-1" d="M87.39,58.11a5.08,5.08,0,1,1-7.32,1.06A5.24,5.24,0,0,1,87.39,58.11Z"/><path class="cls-1" d="M87.1,58.53a4.57,4.57,0,1,1-6.59.95A4.71,4.71,0,0,1,87.1,58.53Z"/><path class="cls-1" d="M86.81,58.94a4.07,4.07,0,1,1-5.86.85A4.2,4.2,0,0,1,86.81,58.94Z"/><path class="cls-1" d="M86.51,59.36a3.56,3.56,0,1,1-5.12.74A3.66,3.66,0,0,1,86.51,59.36Z"/><path class="cls-1" d="M86.22,59.77a3,3,0,1,1-4.39.64A3.15,3.15,0,0,1,86.22,59.77Z"/><path class="cls-1" d="M85.93,60.19a2.54,2.54,0,1,1-3.66.53A2.62,2.62,0,0,1,85.93,60.19Z"/><path class="cls-1" d="M85.64,60.6a2,2,0,1,1-2.33,3.32,2,2,0,1,1,2.33-3.32Z"/><path class="cls-1" d="M85.35,61a1.52,1.52,0,1,1-2.2.32A1.57,1.57,0,0,1,85.35,61Z"/><path class="cls-1" d="M85.06,61.43a1.06,1.06,0,0,1,.3,1.45,1.08,1.08,0,0,1-1.77-1.24A1.06,1.06,0,0,1,85.06,61.43Z"/><path class="cls-1" d="M84.76,61.85a.5.5,0,0,1,.15.72.52.52,0,0,1-.73.11.51.51,0,1,1,.58-.83Z"/></g><circle class="cls-1" cx="84.28" cy="6.14" r="6.14"/><circle class="cls-1" cx="102.9" cy="6.14" r="6.14"/><path class="cls-3" d="M25.36,90.51C11.47,90.51,3,80.41,0,76.07L10.27,69C12.15,71.7,17.38,78,25.35,78c9.54,0,15.47-6.51,15.47-17V20.47H53.29V61.06C53.29,78.4,41.81,90.51,25.36,90.51Z"/><path class="cls-3" d="M203.05,50.79a35.27,35.27,0,0,1,.23,4,37.29,37.29,0,0,1-9,25,32.72,32.72,0,0,1-24.86,10.78,35.74,35.74,0,1,1,28.89-56.77l-10.25,7.12A23.26,23.26,0,1,0,169.43,78c11.26,0,17.81-7.09,20.26-15.45H171.77V50.79Z"/><path class="cls-3" d="M229.9,32.57V48.91h34.83V60.63H229.9V77H272V88.69H217.42V20.85H272V32.57Z"/><path class="cls-3" d="M300.83,33.32l0,55.37H288.38l0-67.84,35.65,0h0a23.6,23.6,0,0,1,23.69,23.46c0,10-6.62,18.4-16.34,21.28l19.78,23.1H335.61L308.74,57.3h9.59c10.21,0,16.88-5.37,16.88-13a11.11,11.11,0,0,0-11.21-11H300.83Z"/><text class="cls-4" transform="translate(0 129.07)">T<tspan class="cls-5" x="12.22" y="0">ake A Risk</tspan></text></g></g></svg>